# xmcd
#
# Track frame offsets:
#	150
#	15757
#	29888
#	46491
#	59978
#	85435
#	100270
#	119520
#	136117
#	153323
#	170502
#	186259
#	202438
#	218359
#	234377
#
# Disc length: 3360 seconds
#
# Revision: 1
# Processed by: cddbd v1.5.2PL0 Copyright (c) Steve Scherf et al.
# Submitted via: EasyCDDAExtractor 15.3.0.1
#
DISCID=d80d1e0f
DTITLE=Yolandita Monge - Idolos De Siempre
DYEAR=2001
DGENRE=Latin
TTITLE0=Luz De Luna
TTITLE1=Que Te Hice
TTITLE2=Si
TTITLE3=Siempre Tu
TTITLE4=Laberinto De Amor
TTITLE5=Sueños
TTITLE6=Quitame Ese Hombre Del Corazon
TTITLE7=Eres Magico
TTITLE8=Te Agradezco
TTITLE9=Todo A Pulmon
TTITLE10=Contra La Pared
TTITLE11=La Distancia
TTITLE12=Como Lo Hago Yo
TTITLE13=Perdoname Otra Vez
TTITLE14=Esta Guerra La Perdere
EXTD=
EXTT0=
EXTT1=
EXTT2=
EXTT3=
EXTT4=
EXTT5=
EXTT6=
EXTT7=
EXTT8=
EXTT9=
EXTT10=
EXTT11=
EXTT12=
EXTT13=
EXTT14=
PLAYORDER=
